<?xml version="1.0" encoding="UTF-8" standalone="no"?>
<!-- Created with Inkscape (http://www.inkscape.org/) -->

<svg
   width="7.2916665in"
   height="1.8031188in"
   viewBox="0 0 185.20833 45.799218"
   version="1.1"
   id="svg5"
   sodipodi:docname="inkscape.svg"
   inkscape:version="1.1.1 (3bf5ae0d25, 2021-09-20)"
   xmlns:inkscape="http://www.inkscape.org/namespaces/inkscape"
   xmlns:sodipodi="http://sodipodi.sourceforge.net/DTD/sodipodi-0.dtd"
   xmlns="http://www.w3.org/2000/svg"
   xmlns:svg="http://www.w3.org/2000/svg">
  <sodipodi:namedview
     id="namedview19"
     pagecolor="#ffffff"
     bordercolor="#999999"
     borderopacity="1"
     inkscape:pageshadow="0"
     inkscape:pageopacity="0"
     inkscape:pagecheckerboard="0"
     inkscape:document-units="in"
     showgrid="false"
     showguides="true"
     inkscape:guide-bbox="true"
     inkscape:snap-grids="false"
     inkscape:zoom="1.0828836"
     inkscape:cx="47.096477"
     inkscape:cy="355.0705"
     inkscape:window-width="1366"
     inkscape:window-height="745"
     inkscape:window-x="-8"
     inkscape:window-y="-8"
     inkscape:window-maximized="1"
     inkscape:current-layer="svg5">
    <sodipodi:guide
       position="-61.678519,-11.041771"
       orientation="0,-1"
       id="guide558" />
  </sodipodi:namedview>
  <defs
     id="defs2" />
  <g
     id="layer1"
     transform="translate(-11.063902,-9.0105495)">
    <g
       aria-label="Ineffable"
       id="text2937"
       style="font-size:19.6994px;line-height:1.25;font-family:'Reggae One';-inkscape-font-specification:'Reggae One';fill:#ff9955;stroke-width:0.492488"
       transform="translate(-1.4117647,-120)">
      <g
         id="g20146"
         transform="matrix(2.3424482,0,0,2.3424482,-137.45292,-174.84347)">
        <g
           id="g20357">
          <path
             d="m 65.771135,148.93024 -1.757002,-15.77608 h 3.703487 l 0.653836,15.77608 z"
             id="path13398"
             style="fill:#ff6600" />
          <path
             d="m 76.843374,148.63867 -0.315191,-6.75689 q -0.0591,-1.30016 -0.354589,-1.71385 -0.275792,-0.43339 -0.886473,-0.43339 -0.472786,0 -1.31986,0.25609 -0.847074,0.2364 -1.654749,0.74858 l -0.374289,7.89946 H 69.515197 L 69.003013,137.6661 h 3.447394 l -0.0985,2.08814 q 0.610682,-0.68948 1.398658,-1.22136 0.807675,-0.53189 1.674449,-0.82738 0.866773,-0.29549 1.654749,-0.29549 1.477455,0 2.009339,0.80768 0.531884,0.78797 0.531884,2.30483 0,0.13789 -0.0197,0.27579 0,0.1182 0,0.27579 l -0.315191,7.56457 z"
             id="path13400"
             style="fill:#ff6600" />
          <path
             d="m 91.722042,148.45475 c -2.245698,0.2009 -3.788183,0.0978 -5.140875,-0.0861 -1.352692,-0.18386 -2.445349,-0.76495 -3.233325,-1.1852 -0.787976,-0.42025 -1.352692,-0.97184 -1.694148,-1.65475 -0.341457,-0.68291 -0.512185,-1.51685 -0.512185,-2.50182 0,-1.2739 0.236393,-2.3705 0.709179,-3.2898 0.472785,-0.91931 1.090033,-1.62192 1.851743,-2.10784 0.774843,-0.49905 1.589085,-0.74858 2.442726,-0.74858 0.682913,0 1.372392,0.10506 2.068437,0.31519 0.696045,0.21013 1.346125,0.55158 1.95024,1.02437 0.604115,0.47279 1.0966,1.0966 1.477455,1.87144 0.380855,0.76171 0.597549,1.70072 0.650081,2.81702 l -8.261754,1.30861 c 0.118196,0.72232 0.336028,0.97652 0.874479,1.4887 0.551583,0.49905 1.378957,0.93901 2.482124,1.31986 1.103167,0.38086 2.738528,0.6302 4.890301,0.2587 z m -2.720472,-7.16137 c -0.06567,-0.51219 -0.216695,-0.99811 -0.453086,-1.45776 -0.236393,-0.45965 -0.538451,-0.82737 -0.906173,-1.10316 -0.367722,-0.28893 -0.774843,-0.43339 -1.221363,-0.43339 -0.525317,0 -0.978403,0.12476 -1.359258,0.37429 -0.380855,0.24953 -0.676346,0.72888 -0.886473,1.43805 -0.210127,0.69605 -0.315191,1.72042 -0.315191,3.07311 v 0.19699 c 0,0.0525 0.0066,0.11163 0.0197,0.1773 z"
             id="path13402"
             style="fill:#ff6600" />
          <path
             d="m 93.881182,148.59725 -0.295491,-9.26603 -1.792645,0.30886 v -2.77981 l 1.733547,0.30887 -0.157595,-5.06543 6.20531,1.72966 -0.0197,0.2265 -2.89581,0.72069 -0.0788,2.90336 2.620014,0.45301 v 0.18532 l -2.639713,0.4736 -0.256092,9.8014 z"
             id="path13404"
             style="fill:#ff6600;stroke-width:0.503512" />
          <path
             d="m 101.78353,148.42543 -0.29549,-9.575 -1.792585,0.31916 1.086045,-1.45915 -0.005,-0.28322 -1.665259,-1.08278 2.317509,0.27182 -0.15759,-5.23433 6.20531,1.78733 -0.0197,0.23406 -2.89581,0.74472 -0.0788,3.00017 2.62002,0.46811 v 0.1915 l -2.63972,0.48939 -0.25609,10.12822 z"
             id="path13406"
             style="fill:#ff6600;stroke-width:0.511838" />
          <path
             d="m 116.80363,147.12602 q -0.90618,0.84707 -1.59566,1.33956 -0.68947,0.49248 -1.24106,0.49248 -0.43338,0 -0.78797,-0.33489 -0.33489,-0.35459 -0.63038,-1.12286 -0.61069,0.53188 -1.49716,0.90617 -0.88647,0.35459 -1.91084,0.47279 -0.31519,0.0394 -0.61068,0.0591 -0.29549,0.0197 -0.57128,0.0197 -2.77762,0 -2.77762,-1.98964 0,-0.23639 0.0394,-0.49248 0.0394,-0.25609 0.1182,-0.55158 0.17729,-0.65009 0.70917,-1.16227 0.55159,-0.53188 1.31986,-0.94557 0.76828,-0.43339 1.57596,-0.78798 0.80767,-0.37429 1.49715,-0.68948 0.70918,-0.33489 1.14257,-0.65008 0.45308,-0.31519 0.45308,-0.63038 0,-0.86677 -0.21669,-1.16226 -0.2167,-0.31519 -0.82738,-0.31519 -0.43338,0 -1.33956,0.0788 -0.90617,0.0788 -1.98964,0.23639 -1.08346,0.15759 -2.06843,0.41369 l -0.0985,-0.197 q 0.53188,-0.51218 1.35926,-0.98497 0.84707,-0.47278 1.79264,-0.84707 0.96528,-0.37429 1.91085,-0.59098 0.94557,-0.2167 1.71384,-0.2167 1.22137,0 1.81235,0.25609 0.61068,0.2364 0.80767,0.96528 0.2167,0.70917 0.2167,2.14723 v 4.98395 q 0,0.70918 0.11819,1.02437 0.1379,0.29549 0.61069,0.29549 0.15759,0 0.37428,-0.0394 0.2364,-0.0394 0.51219,-0.0985 z m -4.60966,-4.35357 q -0.43339,0.37429 -1.16227,0.80768 -0.70918,0.41368 -1.37896,0.90617 -0.66978,0.47278 -0.98497,1.06377 -0.27579,0.55158 -0.27579,0.96527 0,0.39399 0.2364,0.65008 0.25609,0.25609 0.70917,0.25609 0.0985,0 0.197,0 0.11819,-0.0197 0.21669,-0.0394 0.39399,-0.0985 0.90617,-0.27579 0.53189,-0.1773 0.98497,-0.41369 0.47279,-0.23639 0.66978,-0.47278 z"
             id="path13408"
             style="fill:#ff6600" />
          <path
             d="m 116.8772,131.5037 h 3.4474 l -0.2364,6.83254 q 0.53189,-0.56005 1.22137,-1.03049 0.68948,-0.49283 1.43805,-0.78406 0.76828,-0.31363 1.49716,-0.31363 1.87144,0 2.77761,1.32171 0.92587,1.2993 0.92587,3.69629 0,2.71062 -1.30016,4.50276 -1.30016,1.79213 -3.64439,2.66581 -2.32452,0.87366 -5.45673,0.87366 z m 2.85641,16.71171 q 2.02904,-0.76166 3.17161,-1.81454 1.14256,-1.05288 1.61535,-2.32979 0.47278,-1.27689 0.47278,-2.66581 0,-1.52332 -0.45308,-2.19537 -0.45309,-0.67205 -1.31986,-0.67205 -0.82738,0 -1.57595,0.15682 -0.72888,0.1568 -1.59566,0.56003 z"
             id="path13410"
             style="fill:#ff6600;stroke-width:0.525182" />
          <path
             d="m 128.67779,149.22085 -0.53188,-15.36553 h 3.52619 l -0.53188,15.36553 z"
             id="path13412"
             style="fill:#ff6600" />
          <path
             d="m 142.40145,148.89548 q -3.03371,0 -5.06275,-0.27579 -2.02904,-0.27579 -3.211,-0.90617 -1.18197,-0.63038 -1.69415,-1.65475 -0.51219,-1.02437 -0.51219,-2.50182 0,-1.91085 0.70918,-3.2898 0.70918,-1.37896 1.85175,-2.10784 1.16226,-0.74858 2.44272,-0.74858 1.02437,0 2.06844,0.31519 1.04407,0.31519 1.95024,1.02437 0.90617,0.70918 1.47745,1.87144 0.57129,1.14257 0.65008,2.81702 l -8.37224,0.94557 q 0.17729,1.08347 0.98497,1.85174 0.82737,0.74858 2.48212,1.31986 1.65475,0.57129 4.31417,1.10317 z m -2.62002,-7.07208 q -0.0985,-0.76828 -0.45309,-1.45776 -0.35459,-0.68948 -0.90617,-1.10316 -0.55159,-0.43339 -1.22137,-0.43339 -0.78797,0 -1.35925,0.37429 -0.57129,0.37429 -0.88648,1.43805 -0.31519,1.04407 -0.31519,3.07311 0,0.0985 0,0.19699 0,0.0788 0.0197,0.1773 z"
             id="path13414"
             style="fill:#ff6600" />
          <rect
             style="fill:#ff6600;stroke:none;stroke-width:0.1319"
             id="rect16177"
             width="3.7125371"
             height="2.6564302"
             x="64.005081"
             y="129.71643" />
          <path
             style="fill:#ff6600;stroke:none;stroke-width:0.264583px;stroke-linecap:butt;stroke-linejoin:miter;stroke-opacity:1"
             d="m 121.79328,136.99495 c 0,0 0.65835,-0.54169 1.7722,-0.72987 0.72113,-0.12184 1.77784,-0.0581 2.44429,0.32671 0.61749,0.35651 1.14172,0.93353 1.46295,1.7124 0.56095,1.36012 0.61724,3.22141 0.2905,4.7786 0,0 0.0575,-0.84302 -0.025,-1.93265 -0.0815,-1.07543 -0.48772,-2.4863 -1.24783,-3.4702 -1.11207,-1.43949 -2.62659,-1.48081 -4.6971,-0.68499 z"
             id="path18357" />
        </g>
      </g>
    </g>
  </g>
  <circle
     style="fill:none;stroke:#000000;stroke-width:0.264583"
     id="path89"
     cx="-62.109383"
     cy="57.908733"
     r="18.140741" />
  <circle
     style="fill:none;stroke:#000000;stroke-width:0.264583"
     id="circle273"
     cx="-80.337563"
     cy="89.321548"
     r="18.140741" />
  <circle
     style="fill:none;stroke:#000000;stroke-width:0.264583"
     id="circle470"
     cx="-44.056084"
     cy="89.494316"
     r="18.140741" />
  <ellipse
     style="fill:none;stroke:#000000;stroke-width:0.486012"
     id="circle472"
     cx="-94.331306"
     cy="81.212196"
     rx="32.134487"
     ry="34.554852" />
  <ellipse
     style="fill:none;stroke:#000000;stroke-width:0.486012"
     id="circle556"
     cx="-30.062338"
     cy="81.212189"
     rx="32.134487"
     ry="34.554852" />
  <circle
     style="fill:none;stroke:#000000;stroke-width:0.264583"
     id="circle560"
     cx="-80.337563"
     cy="80.855873"
     r="18.140741" />
  <circle
     style="fill:none;stroke:#000000;stroke-width:0.264583"
     id="circle562"
     cx="-44.056084"
     cy="80.855865"
     r="18.140741" />
  <path
     style="fill:#ff5555;stroke:none;stroke-width:0.46173"
     d="m -241.32917,275.2772 c -2.85639,-6.03451 -7.14307,-12.12421 -12.31265,-17.49144 -11.41518,-11.85166 -24.51718,-18.51665 -40.94202,-20.82724 l -5.77163,-0.81193 -0.86439,-3.67965 c -1.26417,-5.38152 -1.3379,-20.98339 -0.1254,-26.53529 0.92974,-4.25717 2.97285,-11.12308 3.45855,-11.62256 0.36397,-0.37428 7.31688,4.24876 12.61897,8.39045 5.19023,4.05431 15.62475,14.4761 19.87866,19.8544 8.69516,10.99347 15.85785,23.73014 20.72821,36.85881 2.44521,6.59139 6.0778,19.94709 5.4206,19.92955 -0.0917,-0.002 -1.03176,-1.83175 -2.0889,-4.0651 z"
     id="path1921"
     transform="scale(0.26458333)" />
  <path
     style="fill:#ff5555;stroke:none;stroke-width:0.46173"
     d="m -231.32681,280.1047 c 0,-1.11601 2.59329,-10.9068 4.18379,-15.79561 9.04431,-27.79998 26.65872,-51.43383 50.20566,-67.36264 2.92643,-1.97964 4.88456,-3.02949 5.1493,-2.76078 0.62515,0.63451 2.56639,6.81365 3.55269,11.30853 1.2198,5.55898 1.22187,20.57553 0.004,26.58507 l -0.85452,4.21544 -3.76278,0.31814 c -15.46464,1.30751 -31.14855,8.59293 -42.29654,19.64739 -5.48949,5.44343 -9.65853,11.19723 -13.18147,18.19207 -1.64991,3.27591 -2.99983,5.81949 -2.99983,5.65239 z"
     id="path1960"
     transform="scale(0.26458333)" />
  <circle
     style="fill:none;stroke:#000000;stroke-width:0.495632"
     id="circle2079"
     cx="-92.114059"
     cy="63.019615"
     r="33.982285" />
  <circle
     style="fill:none;stroke:#000000;stroke-width:0.495632"
     id="circle2081"
     cx="-31.765841"
     cy="64.11911"
     r="33.982285" />
  <path
     style="fill:#ff5555;stroke:none;stroke-width:0.326493"
     d="m -235.53893,285.92583 c -0.0826,-0.40403 -0.46203,-2.49766 -0.84307,-4.65252 -1.76052,-9.95589 -5.45477,-21.98191 -9.39966,-30.59905 l -1.53643,-3.35617 0.0507,-6.6931 c 0.13716,-18.11226 4.23371,-35.85014 12.19646,-52.81016 0.94848,-2.02017 1.83414,-3.67304 1.96813,-3.67304 0.34039,0 2.89757,5.92235 4.65656,10.78445 4.94187,13.66007 7.43664,27.55444 7.53116,41.94409 l 0.0429,6.52985 -1.184,2.28545 c -5.02698,9.70344 -9.82886,24.42861 -11.87133,36.40392 -0.74506,4.36845 -0.79587,4.57089 -1.14709,4.57089 -0.17273,0 -0.38167,-0.33057 -0.46431,-0.73461 z"
     id="path2312"
     transform="scale(0.26458333)" />
  <circle
     style="fill:#ff5555;stroke:none;stroke-width:0.0346267"
     id="circle2431"
     cx="-68.590889"
     cy="54.406906"
     r="2.3741262" />
  <circle
     style="fill:#ff5555;stroke:none;stroke-width:0.0346267"
     id="circle2469"
     cx="-55.590023"
     cy="54.406906"
     r="2.3741262" />
  <circle
     style="fill:none;stroke:#000000;stroke-width:0.264583"
     id="circle2485"
     cx="-77.283409"
     cy="83.054863"
     r="18.140741" />
  <circle
     style="fill:none;stroke:#000000;stroke-width:0.264583"
     id="circle2487"
     cx="-77.283409"
     cy="87.452843"
     r="18.140741" />
  <circle
     style="fill:none;stroke:#000000;stroke-width:0.264583"
     id="circle2489"
     cx="-47.135227"
     cy="83.054863"
     r="18.140741" />
  <circle
     style="fill:none;stroke:#000000;stroke-width:0.264583"
     id="circle2491"
     cx="-47.135227"
     cy="87.452843"
     r="18.140741" />
  <path
     style="fill:#ff5555;stroke:none;stroke-width:0.230865"
     d="m -244.84742,280.01114 c -2.5059,-2.60167 -8.31385,-6.89166 -13.06382,-9.64944 -7.9828,-4.63474 -18.56972,-7.94817 -27.78461,-8.69586 l -1.98083,-0.16072 -1.66421,-2.27264 c -0.91532,-1.24994 -2.35539,-3.37679 -3.20017,-4.72633 -1.82637,-2.91763 -4.47847,-8.12302 -4.25333,-8.34817 0.25682,-0.25682 9.03301,-0.14331 11.67601,0.15101 8.54199,0.95121 16.07226,3.18141 23.6009,6.98976 2.98496,1.50994 3.31438,1.74682 5.66219,4.07156 2.74786,2.72086 5.17635,5.55646 7.40819,8.6501 1.4183,1.96597 1.48187,2.11603 2.13888,5.04957 0.37243,1.66287 1.09825,4.52673 1.61294,6.36413 0.51468,1.83741 0.89541,3.38113 0.84606,3.43048 -0.0494,0.0494 -0.49855,-0.33469 -0.9982,-0.85345 z"
     id="path2530"
     transform="scale(0.26458333)" />
  <path
     style="fill:#ff5555;stroke:none;stroke-width:0.230865"
     d="m -225.46428,279.69305 c 0.47213,-1.24457 2.47283,-8.19947 3.13236,-10.88884 l 0.74538,-3.03942 1.97965,-2.50134 c 1.08881,-1.37574 3.33852,-3.86726 4.99935,-5.53671 2.95909,-2.97446 3.07993,-3.06538 6.02094,-4.53046 6.63187,-3.30369 13.31878,-5.41937 20.54714,-6.50094 3.65295,-0.54658 9.19706,-0.84818 12.51502,-0.68081 l 3.04971,0.15384 -1.70844,3.37217 c -1.68881,3.33343 -4.90786,8.46763 -6.7824,10.81756 -0.93111,1.16723 -1.00889,1.21204 -2.10399,1.21204 -1.68036,0 -6.18928,0.61333 -9.447,1.28504 -11.30692,2.33138 -22.7689,8.08168 -31.36687,15.73627 -0.99122,0.88245 -1.67972,1.36223 -1.58085,1.1016 z"
     id="path2569"
     transform="scale(0.26458333)" />
  <path
     style="fill:#ff5555;stroke:none;stroke-width:0.122166"
     d="m 27.370336,110.84293 c -0.755754,-1.59663 -1.889938,-3.20786 -3.257722,-4.62794 -3.020267,-3.13576 -6.486838,-4.8992 -10.832576,-5.51054 l -1.527077,-0.21483 -0.228704,-0.973572 c -0.334478,-1.42386 -0.353986,-5.551855 -0.03318,-7.020795 0.245993,-1.126376 0.786566,-2.942982 0.915074,-3.075136 0.0963,-0.09903 1.935925,1.124151 3.338769,2.219974 1.373249,1.072702 4.134049,3.830134 5.259562,5.253143 2.300595,2.908689 4.195723,6.278596 5.484339,9.752226 0.646962,1.74397 1.608085,5.27767 1.434201,5.27303 -0.02426,-5.3e-4 -0.272987,-0.48465 -0.552688,-1.07556 z"
     id="path2797" />
  <path
     style="fill:#ff5555;stroke:none;stroke-width:0.122166"
     d="m 30.016793,112.12021 c 0,-0.29528 0.686142,-2.88576 1.106961,-4.17926 2.392974,-7.35541 7.053453,-13.608534 13.283581,-17.823031 0.774285,-0.52378 1.292373,-0.801553 1.362419,-0.730457 0.165404,0.167881 0.679024,1.802779 0.939983,2.992049 0.322738,1.470813 0.323286,5.443942 0.0011,7.033966 l -0.226092,1.115333 -0.995569,0.0842 c -4.091686,0.34594 -8.241387,2.27354 -11.190959,5.19837 -1.452428,1.44024 -2.555486,2.9626 -3.487597,4.81332 -0.436539,0.86675 -0.793705,1.53974 -0.793705,1.49553 z"
     id="path2799" />
  <path
     style="fill:#ff5555;stroke:none;stroke-width:0.0863846"
     d="m 28.902337,113.66038 c -0.02185,-0.1069 -0.122246,-0.66084 -0.223063,-1.23098 -0.465804,-2.63416 -1.443241,-5.81605 -2.486993,-8.096 l -0.406514,-0.88798 0.01341,-1.77089 c 0.03629,-4.7922 1.120169,-9.485347 3.22698,-13.972686 0.250952,-0.534503 0.485282,-0.971825 0.520734,-0.971825 0.09006,0 0.766649,1.566955 1.232048,2.853386 1.307536,3.614227 1.967611,7.290445 1.992619,11.097705 l 0.01135,1.72769 -0.313267,0.60469 c -1.330055,2.56737 -2.600552,6.46341 -3.140956,9.63187 -0.19713,1.15582 -0.210574,1.20939 -0.303501,1.20939 -0.0457,0 -0.100983,-0.0875 -0.122848,-0.19437 z"
     id="path2801" />
  <circle
     style="fill:#ff5555;stroke:none;stroke-width:0.0346267"
     id="circle2803"
     cx="22.631123"
     cy="92.416077"
     r="2.3741262" />
  <circle
     style="fill:#ff5555;stroke:none;stroke-width:0.0346267"
     id="circle2805"
     cx="35.631989"
     cy="92.416077"
     r="2.3741262" />
  <path
     style="fill:#ff5555;stroke:none;stroke-width:0.061083"
     d="m 26.439465,112.09545 c -0.663019,-0.68836 -2.199706,-1.82342 -3.456469,-2.55308 -2.112116,-1.22627 -4.913238,-2.10295 -7.351344,-2.30078 l -0.524095,-0.0425 -0.440322,-0.60131 c -0.242179,-0.33071 -0.623197,-0.89344 -0.846712,-1.2505 -0.483227,-0.77196 -1.184928,-2.14922 -1.12536,-2.20879 0.06795,-0.0679 2.389984,-0.0379 3.089278,0.04 2.260068,0.25168 4.252452,0.84175 6.244404,1.84938 0.789771,0.3995 0.87693,0.46218 1.498121,1.07726 0.727038,0.7199 1.369576,1.47015 1.960084,2.28868 0.375258,0.52016 0.392078,0.55986 0.565912,1.33603 0.09854,0.43997 0.290579,1.1977 0.426757,1.68384 0.136176,0.48615 0.23691,0.89459 0.223853,0.90765 -0.01307,0.0131 -0.131908,-0.0885 -0.264107,-0.22581 z"
     id="path2807" />
  <path
     style="fill:#ff5555;stroke:none;stroke-width:0.061083"
     d="m 31.567921,112.01129 c 0.124918,-0.32929 0.65427,-2.16944 0.82877,-2.88101 l 0.197215,-0.80418 0.523783,-0.66181 c 0.288081,-0.364 0.883316,-1.02321 1.322744,-1.46492 0.782926,-0.78699 0.814899,-0.81105 1.593041,-1.19868 1.754682,-0.87411 3.523927,-1.43388 5.43643,-1.72004 0.96651,-0.14462 2.433389,-0.22442 3.311266,-0.18014 l 0.806903,0.0407 -0.452025,0.89222 c -0.446831,0.88197 -1.298538,2.24039 -1.79451,2.86214 -0.246356,0.30883 -0.266936,0.32069 -0.556681,0.32069 -0.444595,0 -1.63758,0.16228 -2.499519,0.34 -2.991622,0.61684 -6.024271,2.13828 -8.29915,4.16355 -0.262261,0.23349 -0.444426,0.36043 -0.418267,0.29147 z"
     id="path2809" />
</svg>
