<?xml version="1.0" encoding="UTF-8" standalone="no"?>
<!-- Created with Inkscape (http://www.inkscape.org/) -->

<svg
   width="2.8986828in"
   height="2.2029893in"
   viewBox="0 0 73.626544 55.955929"
   version="1.1"
   id="svg5"
   xmlns="http://www.w3.org/2000/svg"
   xmlns:svg="http://www.w3.org/2000/svg">
  <defs
     id="defs2" />
  <g
     id="g603"
     transform="translate(-52.399282,-74.635576)">
    <g
       id="g1051"
       transform="matrix(2.0629117,0,0,2.0629117,30.175793,-99.99649)">
      <path
         style="fill:#241c1c;stroke:none;stroke-width:0.122166"
         d="m 29.528129,110.04339 c 0,-0.29528 0.686142,-2.88576 1.106961,-4.17926 2.392974,-7.355414 7.053453,-13.608538 13.283581,-17.823035 0.774285,-0.52378 1.292373,-0.801553 1.362419,-0.730457 0.165404,0.167881 0.679024,1.802779 0.939983,2.992049 0.322738,1.470813 0.323286,5.443942 0.0011,7.033966 l -0.226092,1.115333 -0.995569,0.0842 c -4.091686,0.34594 -8.241387,2.273544 -11.190959,5.198374 -1.452428,1.44024 -2.555486,2.9626 -3.487597,4.81332 -0.436539,0.86675 -0.793705,1.53974 -0.793705,1.49553 z"
         id="path2799" />
      <path
         style="fill:#241c1c;stroke:none;stroke-width:0.0863846"
         d="m 28.413673,111.58356 c -0.02185,-0.1069 -0.122246,-0.66084 -0.223063,-1.23098 -0.465804,-2.63416 -1.443241,-5.81605 -2.486993,-8.096 l -0.406514,-0.88798 0.01341,-1.770894 c 0.03629,-4.7922 1.120169,-9.485347 3.22698,-13.972686 0.250952,-0.534503 0.485282,-0.971825 0.520734,-0.971825 0.09006,0 0.766649,1.566955 1.232048,2.853386 1.307536,3.614227 1.967611,7.290445 1.992619,11.097705 l 0.01135,1.727694 -0.313267,0.60469 c -1.330055,2.56737 -2.600552,6.46341 -3.140956,9.63187 -0.19713,1.15582 -0.210574,1.20939 -0.303501,1.20939 -0.0457,0 -0.100983,-0.0875 -0.122848,-0.19437 z"
         id="path2801" />
      <circle
         style="fill:#241c1c;stroke:none;stroke-width:0.0346267"
         id="circle2805"
         cx="35.143326"
         cy="90.339256"
         r="2.3741262" />
      <path
         style="fill:#241c1c;stroke:none;stroke-width:0.061083"
         d="m 31.079257,109.93447 c 0.124918,-0.32929 0.65427,-2.16944 0.82877,-2.88101 l 0.197215,-0.80418 0.523783,-0.66181 c 0.288081,-0.364 0.883316,-1.02321 1.322744,-1.46492 0.782926,-0.78699 0.814899,-0.81105 1.593041,-1.19868 1.754682,-0.87411 3.523927,-1.43388 5.43643,-1.72004 0.96651,-0.14462 2.433389,-0.22442 3.311266,-0.18014 l 0.806903,0.0407 -0.452025,0.89222 c -0.446831,0.88197 -1.298538,2.24039 -1.79451,2.86214 -0.246356,0.30883 -0.266936,0.32069 -0.556681,0.32069 -0.444595,0 -1.63758,0.16228 -2.499519,0.34 -2.991622,0.61684 -6.024271,2.13828 -8.29915,4.16355 -0.262261,0.23349 -0.444426,0.36043 -0.418267,0.29147 z"
         id="path2809" />
      <path
         style="fill:#241c1c;stroke:none;stroke-width:0.122166"
         d="m 26.881672,108.76611 c -0.755754,-1.59663 -1.889938,-3.20786 -3.257722,-4.62794 -3.020267,-3.13576 -6.486838,-4.899204 -10.832576,-5.510544 l -1.527077,-0.21483 -0.228704,-0.973572 c -0.334478,-1.42386 -0.353986,-5.551855 -0.03318,-7.020795 0.245993,-1.126376 0.786566,-2.942982 0.915074,-3.075136 0.0963,-0.09903 1.935925,1.124151 3.338769,2.219974 1.373249,1.072702 4.134049,3.830134 5.259562,5.253143 2.300595,2.908689 4.195723,6.2786 5.484339,9.75223 0.646962,1.74397 1.608085,5.27767 1.434201,5.27303 -0.02426,-5.3e-4 -0.272987,-0.48465 -0.552688,-1.07556 z"
         id="path2797" />
      <circle
         style="fill:#241c1c;stroke:none;stroke-width:0.0346267"
         id="circle2803"
         cx="22.142458"
         cy="90.339256"
         r="2.3741262" />
      <path
         style="fill:#241c1c;stroke:none;stroke-width:0.061083"
         d="m 25.950801,110.01863 c -0.663019,-0.68836 -2.199706,-1.82342 -3.456469,-2.55308 -2.112116,-1.22627 -4.913238,-2.10295 -7.351344,-2.30078 l -0.524095,-0.0425 -0.440322,-0.60131 c -0.242179,-0.33071 -0.623197,-0.89344 -0.846712,-1.2505 -0.483227,-0.77196 -1.184928,-2.14922 -1.12536,-2.20879 0.06795,-0.0679 2.389984,-0.0379 3.089278,0.04 2.260068,0.25168 4.252452,0.84175 6.244404,1.84938 0.789771,0.3995 0.87693,0.46218 1.498121,1.07726 0.727038,0.7199 1.369576,1.47015 1.960084,2.28868 0.375258,0.52016 0.392078,0.55986 0.565912,1.33603 0.09854,0.43997 0.290579,1.1977 0.426757,1.68384 0.136176,0.48615 0.23691,0.89459 0.223853,0.90765 -0.01307,0.0131 -0.131908,-0.0885 -0.264107,-0.22581 z"
         id="path2807" />
    </g>
  </g>
</svg>
