<?xml version="1.0" encoding="UTF-8" standalone="no"?>
<!-- Created with Inkscape (http://www.inkscape.org/) -->

<svg
   width="7.2916665in"
   height="1.8031188in"
   viewBox="0 0 185.20833 45.799218"
   version="1.1"
   id="svg5"
   xmlns="http://www.w3.org/2000/svg"
   xmlns:svg="http://www.w3.org/2000/svg">
  <defs
     id="defs2" />
  <g
     id="layer1"
     transform="translate(-11.063902,-9.0105495)">
    <g
       aria-label="Ineffable"
       id="text2937"
       style="font-size:19.6994px;line-height:1.25;font-family:'Reggae One';-inkscape-font-specification:'Reggae One';fill:#ff9955;stroke-width:0.492488"
       transform="translate(-1.4117647,-120)">
      <g
         id="g20146"
         transform="matrix(2.3424482,0,0,2.3424482,-137.45292,-174.84347)">
        <g
           id="g20357">
          <path
             d="m 65.771135,148.93024 -1.757002,-15.77608 h 3.703487 l 0.653836,15.77608 z"
             id="path13398"
             style="fill:#ff6600" />
          <path
             d="m 76.843374,148.63867 -0.315191,-6.75689 q -0.0591,-1.30016 -0.354589,-1.71385 -0.275792,-0.43339 -0.886473,-0.43339 -0.472786,0 -1.31986,0.25609 -0.847074,0.2364 -1.654749,0.74858 l -0.374289,7.89946 H 69.515197 L 69.003013,137.6661 h 3.447394 l -0.0985,2.08814 q 0.610682,-0.68948 1.398658,-1.22136 0.807675,-0.53189 1.674449,-0.82738 0.866773,-0.29549 1.654749,-0.29549 1.477455,0 2.009339,0.80768 0.531884,0.78797 0.531884,2.30483 0,0.13789 -0.0197,0.27579 0,0.1182 0,0.27579 l -0.315191,7.56457 z"
             id="path13400"
             style="fill:#ff6600" />
          <path
             d="m 91.722042,148.45475 c -2.245698,0.2009 -3.788183,0.0978 -5.140875,-0.0861 -1.352692,-0.18386 -2.445349,-0.76495 -3.233325,-1.1852 -0.787976,-0.42025 -1.352692,-0.97184 -1.694148,-1.65475 -0.341457,-0.68291 -0.512185,-1.51685 -0.512185,-2.50182 0,-1.2739 0.236393,-2.3705 0.709179,-3.2898 0.472785,-0.91931 1.090033,-1.62192 1.851743,-2.10784 0.774843,-0.49905 1.589085,-0.74858 2.442726,-0.74858 0.682913,0 1.372392,0.10506 2.068437,0.31519 0.696045,0.21013 1.346125,0.55158 1.95024,1.02437 0.604115,0.47279 1.0966,1.0966 1.477455,1.87144 0.380855,0.76171 0.597549,1.70072 0.650081,2.81702 l -8.261754,1.30861 c 0.118196,0.72232 0.336028,0.97652 0.874479,1.4887 0.551583,0.49905 1.378957,0.93901 2.482124,1.31986 1.103167,0.38086 2.738528,0.6302 4.890301,0.2587 z m -2.720472,-7.16137 c -0.06567,-0.51219 -0.216695,-0.99811 -0.453086,-1.45776 -0.236393,-0.45965 -0.538451,-0.82737 -0.906173,-1.10316 -0.367722,-0.28893 -0.774843,-0.43339 -1.221363,-0.43339 -0.525317,0 -0.978403,0.12476 -1.359258,0.37429 -0.380855,0.24953 -0.676346,0.72888 -0.886473,1.43805 -0.210127,0.69605 -0.315191,1.72042 -0.315191,3.07311 v 0.19699 c 0,0.0525 0.0066,0.11163 0.0197,0.1773 z"
             id="path13402"
             style="fill:#ff6600" />
          <path
             d="m 93.881182,148.59725 -0.295491,-9.26603 -1.792645,0.30886 v -2.77981 l 1.733547,0.30887 -0.157595,-5.06543 6.20531,1.72966 -0.0197,0.2265 -2.89581,0.72069 -0.0788,2.90336 2.620014,0.45301 v 0.18532 l -2.639713,0.4736 -0.256092,9.8014 z"
             id="path13404"
             style="fill:#ff6600;stroke-width:0.503512" />
          <path
             d="m 101.78353,148.42543 -0.29549,-9.575 -1.792585,0.31916 1.086045,-1.45915 -0.005,-0.28322 -1.665259,-1.08278 2.317509,0.27182 -0.15759,-5.23433 6.20531,1.78733 -0.0197,0.23406 -2.89581,0.74472 -0.0788,3.00017 2.62002,0.46811 v 0.1915 l -2.63972,0.48939 -0.25609,10.12822 z"
             id="path13406"
             style="fill:#ff6600;stroke-width:0.511838" />
          <path
             d="m 116.80363,147.12602 q -0.90618,0.84707 -1.59566,1.33956 -0.68947,0.49248 -1.24106,0.49248 -0.43338,0 -0.78797,-0.33489 -0.33489,-0.35459 -0.63038,-1.12286 -0.61069,0.53188 -1.49716,0.90617 -0.88647,0.35459 -1.91084,0.47279 -0.31519,0.0394 -0.61068,0.0591 -0.29549,0.0197 -0.57128,0.0197 -2.77762,0 -2.77762,-1.98964 0,-0.23639 0.0394,-0.49248 0.0394,-0.25609 0.1182,-0.55158 0.17729,-0.65009 0.70917,-1.16227 0.55159,-0.53188 1.31986,-0.94557 0.76828,-0.43339 1.57596,-0.78798 0.80767,-0.37429 1.49715,-0.68948 0.70918,-0.33489 1.14257,-0.65008 0.45308,-0.31519 0.45308,-0.63038 0,-0.86677 -0.21669,-1.16226 -0.2167,-0.31519 -0.82738,-0.31519 -0.43338,0 -1.33956,0.0788 -0.90617,0.0788 -1.98964,0.23639 -1.08346,0.15759 -2.06843,0.41369 l -0.0985,-0.197 q 0.53188,-0.51218 1.35926,-0.98497 0.84707,-0.47278 1.79264,-0.84707 0.96528,-0.37429 1.91085,-0.59098 0.94557,-0.2167 1.71384,-0.2167 1.22137,0 1.81235,0.25609 0.61068,0.2364 0.80767,0.96528 0.2167,0.70917 0.2167,2.14723 v 4.98395 q 0,0.70918 0.11819,1.02437 0.1379,0.29549 0.61069,0.29549 0.15759,0 0.37428,-0.0394 0.2364,-0.0394 0.51219,-0.0985 z m -4.60966,-4.35357 q -0.43339,0.37429 -1.16227,0.80768 -0.70918,0.41368 -1.37896,0.90617 -0.66978,0.47278 -0.98497,1.06377 -0.27579,0.55158 -0.27579,0.96527 0,0.39399 0.2364,0.65008 0.25609,0.25609 0.70917,0.25609 0.0985,0 0.197,0 0.11819,-0.0197 0.21669,-0.0394 0.39399,-0.0985 0.90617,-0.27579 0.53189,-0.1773 0.98497,-0.41369 0.47279,-0.23639 0.66978,-0.47278 z"
             id="path13408"
             style="fill:#ff6600" />
          <path
             d="m 116.8772,131.5037 h 3.4474 l -0.2364,6.83254 q 0.53189,-0.56005 1.22137,-1.03049 0.68948,-0.49283 1.43805,-0.78406 0.76828,-0.31363 1.49716,-0.31363 1.87144,0 2.77761,1.32171 0.92587,1.2993 0.92587,3.69629 0,2.71062 -1.30016,4.50276 -1.30016,1.79213 -3.64439,2.66581 -2.32452,0.87366 -5.45673,0.87366 z m 2.85641,16.71171 q 2.02904,-0.76166 3.17161,-1.81454 1.14256,-1.05288 1.61535,-2.32979 0.47278,-1.27689 0.47278,-2.66581 0,-1.52332 -0.45308,-2.19537 -0.45309,-0.67205 -1.31986,-0.67205 -0.82738,0 -1.57595,0.15682 -0.72888,0.1568 -1.59566,0.56003 z"
             id="path13410"
             style="fill:#ff6600;stroke-width:0.525182" />
          <path
             d="m 128.67779,149.22085 -0.53188,-15.36553 h 3.52619 l -0.53188,15.36553 z"
             id="path13412"
             style="fill:#ff6600" />
          <path
             d="m 142.40145,148.89548 q -3.03371,0 -5.06275,-0.27579 -2.02904,-0.27579 -3.211,-0.90617 -1.18197,-0.63038 -1.69415,-1.65475 -0.51219,-1.02437 -0.51219,-2.50182 0,-1.91085 0.70918,-3.2898 0.70918,-1.37896 1.85175,-2.10784 1.16226,-0.74858 2.44272,-0.74858 1.02437,0 2.06844,0.31519 1.04407,0.31519 1.95024,1.02437 0.90617,0.70918 1.47745,1.87144 0.57129,1.14257 0.65008,2.81702 l -8.37224,0.94557 q 0.17729,1.08347 0.98497,1.85174 0.82737,0.74858 2.48212,1.31986 1.65475,0.57129 4.31417,1.10317 z m -2.62002,-7.07208 q -0.0985,-0.76828 -0.45309,-1.45776 -0.35459,-0.68948 -0.90617,-1.10316 -0.55159,-0.43339 -1.22137,-0.43339 -0.78797,0 -1.35925,0.37429 -0.57129,0.37429 -0.88648,1.43805 -0.31519,1.04407 -0.31519,3.07311 0,0.0985 0,0.19699 0,0.0788 0.0197,0.1773 z"
             id="path13414"
             style="fill:#ff6600" />
          <rect
             style="fill:#ff6600;stroke:none;stroke-width:0.1319"
             id="rect16177"
             width="3.7125371"
             height="2.6564302"
             x="64.005081"
             y="129.71643" />
          <path
             style="fill:#ff6600;stroke:none;stroke-width:0.264583px;stroke-linecap:butt;stroke-linejoin:miter;stroke-opacity:1"
             d="m 121.79328,136.99495 c 0,0 0.65835,-0.54169 1.7722,-0.72987 0.72113,-0.12184 1.77784,-0.0581 2.44429,0.32671 0.61749,0.35651 1.14172,0.93353 1.46295,1.7124 0.56095,1.36012 0.61724,3.22141 0.2905,4.7786 0,0 0.0575,-0.84302 -0.025,-1.93265 -0.0815,-1.07543 -0.48772,-2.4863 -1.24783,-3.4702 -1.11207,-1.43949 -2.62659,-1.48081 -4.6971,-0.68499 z"
             id="path18357" />
        </g>
      </g>
    </g>
  </g>
</svg>
